<svg width="38" height="38" viewBox="0 0 38 38" fill="none" xmlns="http://www.w3.org/2000/svg">
    <path d="M19 38C29.4934 38 38 29.4934 38 19C38 8.50659 29.4934 0 19 0C8.50659 0 0 8.50659 0 19C0 29.4934 8.50659 38 19 38Z" fill="#164A9F"/>
    <path d="M19.174 23.3451H19.0556C18.7758 23.3351 18.4968 23.3815 18.2353 23.4817C17.9738 23.5819 17.7351 23.7338 17.5336 23.9282C17.3321 24.1227 17.1718 24.3557 17.0623 24.6135C16.9529 24.8712 16.8964 25.1484 16.8964 25.4284C16.8964 25.7085 16.9529 25.9856 17.0623 26.2434C17.1718 26.5011 17.3321 26.7342 17.5336 26.9286C17.7351 27.1231 17.9738 27.2749 18.2353 27.3751C18.4968 27.4753 18.7758 27.5218 19.0556 27.5117C19.0951 27.514 19.1346 27.514 19.174 27.5117V29.0136H19.0556C18.2434 29.0128 17.4555 28.7365 16.8208 28.2297C16.186 27.723 15.742 27.0159 15.5613 26.2241C13.5075 28.5221 11.1578 28.8356 11.1578 28.8356L11.0078 28.8662C11.4303 29.1905 11.8722 29.4887 12.331 29.7591C12.4245 29.8122 12.5178 29.8679 12.6171 29.9211C12.7165 29.9742 12.8123 30.0299 12.914 30.0831C12.9766 30.1164 13.0323 30.1469 13.1008 30.1777C13.2403 30.2487 13.3841 30.3172 13.53 30.3871C13.6966 30.4639 13.867 30.5371 14.042 30.6106L14.2501 30.6939C14.346 30.7317 14.4428 30.7696 14.541 30.8051C15.0496 30.9943 15.5693 31.1523 16.0971 31.2781C16.4176 31.3549 16.7498 31.4236 17.094 31.4814C17.782 31.5896 18.4775 31.643 19.174 31.6411H19.278C21.4266 31.5744 23.1648 29.5054 23.1648 27.3411C23.1642 26.2824 22.7437 25.2671 21.9955 24.518C21.2473 23.769 20.2325 23.3473 19.1738 23.3454L19.174 23.3451Z" fill="#EF4849"/>
    <path d="M25.6528 8.27871C26.7405 9.70435 27.3295 11.4479 27.3293 13.241C27.3293 17.791 24.522 20.8425 19.9275 20.8707V19.4847C23.7515 19.4577 25.9262 17.0272 25.9262 13.2424C25.9262 9.64471 23.12 6.68088 19.5558 6.37404C19.3725 6.36621 19.1865 6.35938 19 6.35938C15.689 6.36052 12.5135 7.67482 10.1702 10.014C7.82687 12.3532 6.50697 15.5263 6.5 18.8374C6.5 19.0155 6.5 19.1927 6.5125 19.3697H8.573V20.8629H6.666C6.78644 21.6058 6.97553 22.336 7.23083 23.044L8.76617 22.3274L9.4045 23.6807L7.823 24.4184C7.98242 24.7459 8.15969 25.0644 8.354 25.3725C8.354 25.3725 11.0552 25.7225 13.6805 23.7597L13.8703 23.6154C13.8172 23.7169 11.9115 27.3619 6.5025 26.4834C7.96317 27.5355 13.2807 29.6199 16.0303 23.7767C16.3304 23.289 16.7502 22.8861 17.2498 22.6064C17.7495 22.3267 18.3124 22.1794 18.885 22.1785H18.998C20.2463 22.1783 21.452 22.6328 22.3895 23.4571C23.327 24.2813 23.9322 25.4188 24.0918 26.6569C24.0918 26.6942 24.6045 29.2317 22.7237 30.7262C25.2282 29.9672 26.62 28.7232 26.62 28.7232C26.9058 28.4977 27.1848 28.272 27.448 28.0232C28.8652 26.7283 29.9638 25.1232 30.6578 23.3334C31.3518 21.5435 31.6225 19.6174 31.4487 17.7056C31.2749 15.7938 30.6612 13.9481 29.6558 12.3128C28.6504 10.6774 27.2803 9.29676 25.6528 8.27871ZM14.9695 15.8787C14.64 15.8726 14.3228 15.7527 14.0717 15.5393C13.8206 15.3258 13.6512 15.032 13.5921 14.7078C13.5331 14.3836 13.5882 14.0489 13.7479 13.7607C13.9077 13.4725 14.1623 13.2484 14.4685 13.1266C14.7747 13.0048 15.1137 12.9928 15.4277 13.0926C15.7418 13.1924 16.0117 13.3978 16.1914 13.674C16.3712 13.9502 16.4498 14.2801 16.4139 14.6077C16.378 14.9353 16.2298 15.2403 15.9945 15.471C15.8593 15.6037 15.699 15.708 15.523 15.778C15.347 15.848 15.1589 15.8823 14.9695 15.8787Z" fill="white"/>
</svg>
